<?xml version="1.0" encoding="utf-8"?>
<!-- Generator: Adobe Illustrator 21.0.0, SVG Export Plug-In . SVG Version: 6.00 Build 0)  -->
<svg version="1.1" id="Layer_1" xmlns:svg="http://www.w3.org/2000/svg"
	 xmlns="http://www.w3.org/2000/svg" xmlns:xlink="http://www.w3.org/1999/xlink" x="0px" y="0px" viewBox="0 0 200 72"
	 style="enable-background:new 0 0 200 72;" xml:space="preserve">
<style type="text/css">
	.st0{fill:#FFFFFF;}
</style>
<path class="st0" d="M23.7,70.6c-5.8-0.2-10.6-1.8-14.4-4.8c-0.7-0.6-2.4-2.3-3-3C4.9,60.9,3.8,59,3.2,57c-2.1-6.3-1-14.6,3.1-23.8
	c3.5-7.8,9-15.5,18.5-26.3c1.4-1.6,5.6-6.2,5.6-6.2c0,0-0.2,0.4-0.5,0.9c-2.5,4.2-4.6,9-5.8,13.3c-1.9,6.8-1.6,12.6,0.7,17.2
	c1.6,3.1,4.3,5.8,7.3,7.3c5.3,2.6,13.1,2.8,22.7,0.6c0.7-0.2,33.2-8.8,72.2-19.2c39.1-10.4,71-18.9,71.1-18.9
	c0,0-90.8,38.9-137.9,59c-7.5,3.2-9.5,4-13,5.2C38.3,69.3,30.2,70.8,23.7,70.6z"/>
</svg>
